<svg xmlns="http://www.w3.org/2000/svg" xmlns:xlink="http://www.w3.org/1999/xlink" width="500" zoomAndPan="magnify" viewBox="0 0 375 374.999991" height="500" preserveAspectRatio="xMidYMid meet" version="1.0"><defs><clipPath id="f3fe318e9a"><path d="M 48.546875 241 L 142 241 L 142 349.902344 L 48.546875 349.902344 Z M 48.546875 241 " clip-rule="nonzero"/></clipPath><clipPath id="ca84d67b41"><path d="M 163 241 L 256.359375 241 L 256.359375 349.902344 L 163 349.902344 Z M 163 241 " clip-rule="nonzero"/></clipPath><clipPath id="921934cbfe"><path d="M 163 147.265625 L 210 147.265625 L 210 220 L 163 220 Z M 163 147.265625 " clip-rule="nonzero"/></clipPath><clipPath id="955f9a5ec9"><path d="M 94 147.265625 L 142 147.265625 L 142 220 L 94 220 Z M 94 147.265625 " clip-rule="nonzero"/></clipPath><clipPath id="4c0022c070"><path d="M 1 1 L 302.480469 1 L 302.480469 353.644531 L 1 353.644531 Z M 1 1 " clip-rule="nonzero"/></clipPath><clipPath id="cb957dbe32"><rect x="0" width="303" y="0" height="354"/></clipPath></defs><g transform="matrix(1, 0, 0, 1, 34, 12)"><g clip-path="url(#cb957dbe32)"><path fill="#c7b286" d="M 141.292969 251.5 L 141.292969 306.058594 L 55.019531 216.113281 C 59.828125 205.082031 67.375 194.648438 77.492188 185.019531 Z M 141.292969 251.5 " fill-opacity="1" fill-rule="nonzero"/><g clip-path="url(#f3fe318e9a)"><path fill="#c7b286" d="M 141.292969 338.144531 L 141.292969 350.023438 C 88.9375 344.429688 48.585938 299.992188 48.585938 246.832031 C 48.585938 245.128906 48.648438 243.414062 48.777344 241.6875 Z M 141.292969 338.144531 " fill-opacity="1" fill-rule="nonzero"/></g><g clip-path="url(#ca84d67b41)"><path fill="#c7b286" d="M 256.1875 246.832031 C 256.1875 299.992188 215.851562 344.429688 163.507812 350.023438 L 163.507812 337.742188 L 255.980469 241.296875 C 256.121094 243.15625 256.1875 244.992188 256.1875 246.832031 Z M 256.1875 246.832031 " fill-opacity="1" fill-rule="nonzero"/></g><path fill="#c7b286" d="M 249.632812 215.828125 L 163.503906 305.628906 L 163.503906 251.316406 L 227.179688 184.902344 C 237.269531 194.480469 244.8125 204.859375 249.632812 215.828125 Z M 249.632812 215.828125 " fill-opacity="1" fill-rule="nonzero"/><g clip-path="url(#921934cbfe)"><path fill="#c7b286" d="M 209.816406 170.925781 L 163.503906 219.207031 L 163.503906 147.273438 C 175.371094 151.675781 193.046875 159.347656 209.816406 170.925781 Z M 209.816406 170.925781 " fill-opacity="1" fill-rule="nonzero"/></g><g clip-path="url(#955f9a5ec9)"><path fill="#c7b286" d="M 141.292969 147.265625 L 141.292969 219.421875 L 94.84375 171.003906 C 111.695312 159.359375 129.414062 151.664062 141.292969 147.265625 Z M 141.292969 147.265625 " fill-opacity="1" fill-rule="nonzero"/></g><g clip-path="url(#4c0022c070)"><path fill="#c7b286" d="M 296.117188 105.753906 C 285.863281 76.441406 259.9375 51.726562 229.074219 48.242188 C 224.789062 47.75 208.183594 44.882812 189.820312 51.417969 C 210.636719 41.734375 229.722656 44.339844 244.261719 46.332031 C 267.191406 49.457031 284.832031 58.210938 296.117188 65.234375 C 285.011719 42.199219 267.527344 21.433594 244.207031 10.925781 C 220.941406 0.4375 191.472656 1.886719 171.898438 18.308594 C 168.773438 20.945312 154.519531 31.480469 148.964844 50.515625 C 144.085938 29.648438 128.5625 18.15625 125.285156 15.390625 C 105.707031 -1.03125 76.242188 -2.480469 52.949219 8.03125 C 29.652344 18.542969 12.144531 39.304688 1.039062 62.316406 C 12.324219 55.265625 29.964844 46.535156 52.894531 43.410156 C 66.660156 41.527344 84.507812 39.097656 104.054688 47.054688 C 91.351562 45.089844 81.121094 46.820312 77.894531 47.183594 C 47.035156 50.667969 21.105469 75.382812 10.851562 104.695312 C 0.601562 134.007812 4.242188 166.804688 15.242188 195.832031 C 18.472656 180 25.546875 157.171875 41.972656 134.34375 C 52.378906 119.878906 66.066406 100.871094 92.019531 90.644531 C 101.136719 87.054688 110.019531 85.222656 118.257812 84.5 C 113.972656 88.683594 110.074219 93.746094 106.949219 99.917969 C 96.539062 120.449219 96.023438 144.929688 101.265625 167.371094 C 103.382812 155.105469 108.472656 135.066406 122.390625 114.507812 C 129.777344 103.558594 137.371094 95.863281 142.042969 91.601562 C 142.070312 91.265625 142.070312 90.90625 142.097656 90.570312 C 142.070312 91.007812 142.070312 91.445312 142.042969 91.886719 C 138.273438 175.507812 134.503906 259.128906 130.757812 342.75 C 132.566406 344.816406 140.574219 353.46875 152.789062 353.363281 C 164.691406 353.261719 172.464844 344.894531 174.324219 342.75 C 170.011719 257.96875 165.726562 173.210938 161.414062 88.425781 C 172.105469 92.09375 184.292969 97.980469 196.019531 107.484375 C 198.34375 109.371094 209.265625 118.382812 219.777344 133.953125 C 233.671875 154.539062 238.785156 174.550781 240.902344 186.820312 C 246.144531 164.378906 245.628906 139.921875 235.222656 119.363281 C 223.910156 97.050781 202.347656 89.019531 189.046875 85.609375 C 197.207031 86.359375 205.988281 88.167969 214.976562 91.730469 C 240.929688 101.957031 254.617188 120.964844 265.023438 135.425781 C 281.449219 158.257812 288.523438 181.085938 291.777344 196.917969 C 302.726562 167.863281 306.394531 135.039062 296.117188 105.753906 Z M 296.117188 105.753906 " fill-opacity="1" fill-rule="nonzero"/></g></g></g></svg>