<svg xmlns="http://www.w3.org/2000/svg" xmlns:xlink="http://www.w3.org/1999/xlink" width="500" zoomAndPan="magnify" viewBox="0 0 375 374.999991" height="500" preserveAspectRatio="xMidYMid meet" version="1.0"><defs><g/><clipPath id="b8babffb6d"><path d="M 0.878906 0.546875 L 157.914062 0.546875 L 157.914062 215.058594 L 0.878906 215.058594 Z M 0.878906 0.546875 " clip-rule="nonzero"/></clipPath><clipPath id="08421f595f"><path d="M 18.574219 149 L 75 149 L 75 215.015625 L 18.574219 215.015625 Z M 18.574219 149 " clip-rule="nonzero"/></clipPath><clipPath id="2c8ebaf642"><path d="M 87 149 L 143.789062 149 L 143.789062 215.015625 L 87 215.015625 Z M 87 149 " clip-rule="nonzero"/></clipPath><clipPath id="6421c34ac4"><path d="M 87 92.878906 L 116 92.878906 L 116 137 L 87 137 Z M 87 92.878906 " clip-rule="nonzero"/></clipPath><clipPath id="5e8a28875d"><path d="M 46 92.878906 L 75 92.878906 L 75 137 L 46 137 Z M 46 92.878906 " clip-rule="nonzero"/></clipPath><clipPath id="1448778e22"><rect x="0" width="159" y="0" height="216"/></clipPath><clipPath id="299844234f"><rect x="0" width="182" y="0" height="146"/></clipPath></defs><g transform="matrix(1, 0, 0, 1, 108, 13)"><g clip-path="url(#1448778e22)"><g clip-path="url(#b8babffb6d)"><path fill="#c7b286" d="M 158.09375 49.714844 C 155.171875 44.949219 143.351562 37.378906 134.054688 34.261719 C 124.765625 31.144531 115.28125 30.246094 105.511719 31.636719 C 115.335938 25.308594 126 21.257812 138.285156 18.734375 C 128.578125 15.300781 119.515625 14.109375 110.164062 15.765625 C 100.683594 17.453125 92.621094 21.894531 85.4375 29.375 C 86.269531 17.550781 81.636719 8.652344 73.796875 0.546875 C 73.753906 0.648438 73.714844 0.75 73.675781 0.847656 C 73.613281 0.757812 73.554688 0.667969 73.492188 0.578125 C 67.460938 10.101562 64.722656 19.757812 67.929688 31.167969 C 59.382812 25.292969 50.585938 22.578125 40.960938 22.847656 C 31.46875 23.117188 22.835938 26.117188 14.027344 31.449219 C 26.566406 31.433594 37.828125 33.238281 48.730469 37.445312 C 38.878906 38.0625 29.777344 40.863281 21.3125 45.796875 C 12.839844 50.730469 2.796875 60.539062 0.902344 65.796875 C 13.011719 59.390625 27.65625 55.960938 37.839844 54.546875 C 40.097656 54.226562 42.132812 54.011719 43.875 53.882812 C 38.292969 57.078125 33.40625 60.664062 29.320312 64.730469 C 20.65625 73.34375 15.589844 84.113281 15.160156 97.859375 C 25.167969 87.6875 37.191406 80.816406 49.730469 74.472656 C 43.410156 87.46875 42.023438 100.921875 50.382812 115.367188 C 52.574219 101.269531 58.039062 88.546875 65.921875 76.273438 C 65.863281 79.992188 66.488281 86.71875 66.847656 86.90625 C 70.183594 82.574219 73.523438 78.246094 76.9375 73.816406 C 77.410156 73.207031 77.890625 72.605469 78.386719 72.015625 C 81.726562 119.382812 78.527344 166.839844 68.875 213.136719 L 68.484375 215.007812 L 90.519531 215.007812 L 90.625 213.566406 C 94.210938 165.457031 91.207031 117.222656 81.699219 70.152344 C 82.921875 71.042969 84.105469 71.980469 85.253906 72.964844 C 89.496094 76.609375 93.644531 80.171875 97.789062 83.738281 C 98.101562 83.484375 97.351562 76.773438 96.539062 73.144531 C 96.542969 73.152344 96.546875 73.152344 96.550781 73.152344 C 106.753906 83.570312 114.675781 94.921875 119.671875 108.277344 C 124.9375 92.4375 120.855469 79.546875 112.03125 68.101562 C 125.597656 71.773438 138.761719 76.070312 150.621094 84 C 147.417969 70.625 140.28125 61.109375 130.050781 54.429688 C 125.222656 51.269531 119.707031 48.75 113.597656 46.75 C 115.328125 46.523438 117.367188 46.320312 119.640625 46.175781 C 129.902344 45.503906 144.933594 45.894531 158.09375 49.714844 " fill-opacity="1" fill-rule="nonzero"/></g><path fill="#c7b286" d="M 74.441406 155.667969 L 74.441406 188.53125 L 22.476562 134.351562 C 25.371094 127.707031 29.917969 121.421875 36.011719 115.621094 Z M 74.441406 155.667969 " fill-opacity="1" fill-rule="nonzero"/><g clip-path="url(#08421f595f)"><path fill="#c7b286" d="M 74.441406 207.859375 L 74.441406 215.015625 C 42.90625 211.644531 18.597656 184.878906 18.597656 152.855469 C 18.597656 151.828125 18.636719 150.796875 18.714844 149.757812 Z M 74.441406 207.859375 " fill-opacity="1" fill-rule="nonzero"/></g><g clip-path="url(#2c8ebaf642)"><path fill="#c7b286" d="M 143.652344 152.855469 C 143.652344 184.878906 119.355469 211.644531 87.828125 215.015625 L 87.828125 207.617188 L 143.53125 149.519531 C 143.613281 150.640625 143.652344 151.746094 143.652344 152.855469 Z M 143.652344 152.855469 " fill-opacity="1" fill-rule="nonzero"/></g><path fill="#c7b286" d="M 139.707031 134.179688 L 87.824219 188.273438 L 87.824219 155.554688 L 126.179688 115.550781 C 132.257812 121.320312 136.800781 127.570312 139.707031 134.179688 Z M 139.707031 134.179688 " fill-opacity="1" fill-rule="nonzero"/><g clip-path="url(#6421c34ac4)"><path fill="#c7b286" d="M 115.722656 107.132812 L 87.824219 136.214844 L 87.824219 92.882812 C 94.96875 95.535156 105.621094 100.15625 115.722656 107.132812 Z M 115.722656 107.132812 " fill-opacity="1" fill-rule="nonzero"/></g><g clip-path="url(#5e8a28875d)"><path fill="#c7b286" d="M 74.441406 92.878906 L 74.441406 136.34375 L 46.464844 107.179688 C 56.613281 100.164062 67.289062 95.527344 74.441406 92.878906 Z M 74.441406 92.878906 " fill-opacity="1" fill-rule="nonzero"/></g></g></g><g transform="matrix(1, 0, 0, 1, 93, 223)"><g clip-path="url(#299844234f)"><g fill="#c7b286" fill-opacity="1"><g transform="translate(3.801055, 118.12471)"><g><path d="M -2.171875 20.40625 L -2.171875 18.34375 C 1.085938 18.269531 3.820312 17.472656 6.03125 15.953125 C 8.238281 14.429688 9.898438 11.914062 11.015625 8.40625 C 12.140625 4.894531 12.703125 0.210938 12.703125 -5.640625 L 12.703125 -65.359375 C 12.703125 -68.035156 12.484375 -70.003906 12.046875 -71.265625 C 11.617188 -72.535156 10.769531 -73.40625 9.5 -73.875 C 8.226562 -74.34375 6.363281 -74.613281 3.90625 -74.6875 L 3.90625 -76.859375 C 5.425781 -76.785156 7.414062 -76.710938 9.875 -76.640625 C 12.332031 -76.566406 14.90625 -76.53125 17.59375 -76.53125 C 20.269531 -76.53125 22.851562 -76.566406 25.34375 -76.640625 C 27.84375 -76.710938 29.925781 -76.785156 31.59375 -76.859375 L 31.59375 -74.6875 C 29.132812 -74.613281 27.269531 -74.34375 26 -73.875 C 24.726562 -73.40625 23.875 -72.535156 23.4375 -71.265625 C 23.007812 -70.003906 22.796875 -68.035156 22.796875 -65.359375 L 22.796875 -25.625 C 22.796875 -22.65625 22.757812 -19.429688 22.6875 -15.953125 C 22.613281 -12.484375 22.453125 -9.117188 22.203125 -5.859375 C 21.953125 -2.609375 21.535156 0.25 20.953125 2.71875 C 19.722656 7.78125 17.132812 11.992188 13.1875 15.359375 C 9.25 18.722656 4.128906 20.40625 -2.171875 20.40625 Z M -2.171875 20.40625 "/></g></g></g><g fill="#c7b286" fill-opacity="1"><g transform="translate(30.720451, 118.12471)"><g><path d="M 69.15625 -76.859375 L 69.15625 -74.6875 C 67.78125 -74.394531 66.3125 -73.5625 64.75 -72.1875 C 63.195312 -70.8125 61.804688 -68.5 60.578125 -65.25 L 35.0625 0.546875 C 34.914062 0.546875 34.769531 0.546875 34.625 0.546875 C 34.488281 0.546875 34.347656 0.546875 34.203125 0.546875 C 34.054688 0.546875 33.910156 0.546875 33.765625 0.546875 C 33.617188 0.546875 33.472656 0.546875 33.328125 0.546875 L 6.84375 -67.75 C 5.757812 -70.5 4.523438 -72.320312 3.140625 -73.21875 C 1.765625 -74.125 0.5 -74.613281 -0.65625 -74.6875 L -0.65625 -76.859375 C 0.789062 -76.785156 2.582031 -76.710938 4.71875 -76.640625 C 6.851562 -76.566406 8.9375 -76.53125 10.96875 -76.53125 C 13.789062 -76.53125 16.429688 -76.566406 18.890625 -76.640625 C 21.347656 -76.710938 23.335938 -76.785156 24.859375 -76.859375 L 24.859375 -74.6875 C 22.398438 -74.613281 20.535156 -74.320312 19.265625 -73.8125 C 18.003906 -73.3125 17.316406 -72.425781 17.203125 -71.15625 C 17.097656 -69.894531 17.515625 -68.035156 18.453125 -65.578125 L 38.640625 -12.046875 L 36.90625 -10.203125 L 55.796875 -59.28125 C 57.316406 -63.1875 58.039062 -66.242188 57.96875 -68.453125 C 57.894531 -70.660156 57.0625 -72.234375 55.46875 -73.171875 C 53.882812 -74.109375 51.570312 -74.613281 48.53125 -74.6875 L 48.53125 -76.859375 C 50.625 -76.785156 52.753906 -76.710938 54.921875 -76.640625 C 57.097656 -76.566406 59.128906 -76.53125 61.015625 -76.53125 C 62.890625 -76.53125 64.441406 -76.566406 65.671875 -76.640625 C 66.910156 -76.710938 68.070312 -76.785156 69.15625 -76.859375 Z M 69.15625 -76.859375 "/></g></g></g><g fill="#c7b286" fill-opacity="1"><g transform="translate(90.639153, 118.12471)"><g><path d="M 90 -76.859375 L 90 -74.6875 C 87.539062 -74.613281 85.675781 -74.34375 84.40625 -73.875 C 83.132812 -73.40625 82.28125 -72.535156 81.84375 -71.265625 C 81.414062 -70.003906 81.203125 -68.035156 81.203125 -65.359375 L 81.203125 -11.5 C 81.203125 -8.894531 81.414062 -6.941406 81.84375 -5.640625 C 82.28125 -4.335938 83.132812 -3.46875 84.40625 -3.03125 C 85.675781 -2.601562 87.539062 -2.316406 90 -2.171875 L 90 0 C 88.332031 -0.144531 86.25 -0.234375 83.75 -0.265625 C 81.257812 -0.304688 78.742188 -0.328125 76.203125 -0.328125 C 73.390625 -0.328125 70.75 -0.304688 68.28125 -0.265625 C 65.820312 -0.234375 63.832031 -0.144531 62.3125 0 L 62.3125 -2.171875 C 64.769531 -2.316406 66.632812 -2.601562 67.90625 -3.03125 C 69.175781 -3.46875 70.023438 -4.335938 70.453125 -5.640625 C 70.890625 -6.941406 71.109375 -8.894531 71.109375 -11.5 L 71.109375 -71.21875 L 71.546875 -70.890625 L 44.9375 0.546875 L 43.203125 0.546875 L 15.84375 -69.921875 L 15.84375 -12.59375 C 15.84375 -9.988281 16.078125 -7.941406 16.546875 -6.453125 C 17.023438 -4.972656 17.96875 -3.925781 19.375 -3.3125 C 20.789062 -2.695312 22.910156 -2.316406 25.734375 -2.171875 L 25.734375 0 C 24.429688 -0.144531 22.726562 -0.234375 20.625 -0.265625 C 18.53125 -0.304688 16.539062 -0.328125 14.65625 -0.328125 C 12.84375 -0.328125 11.015625 -0.304688 9.171875 -0.265625 C 7.328125 -0.234375 5.789062 -0.144531 4.5625 0 L 4.5625 -2.171875 C 7.019531 -2.316406 8.878906 -2.695312 10.140625 -3.3125 C 11.410156 -3.925781 12.265625 -4.972656 12.703125 -6.453125 C 13.140625 -7.941406 13.359375 -9.988281 13.359375 -12.59375 L 13.359375 -65.359375 C 13.359375 -68.035156 13.140625 -70.003906 12.703125 -71.265625 C 12.265625 -72.535156 11.410156 -73.40625 10.140625 -73.875 C 8.878906 -74.34375 7.019531 -74.613281 4.5625 -74.6875 L 4.5625 -76.859375 C 5.789062 -76.785156 7.328125 -76.710938 9.171875 -76.640625 C 11.015625 -76.566406 12.84375 -76.53125 14.65625 -76.53125 C 16.25 -76.53125 17.894531 -76.566406 19.59375 -76.640625 C 21.289062 -76.710938 22.722656 -76.785156 23.890625 -76.859375 L 48.53125 -11.9375 L 46.6875 -11.078125 L 71.109375 -76.53125 C 71.972656 -76.53125 72.820312 -76.53125 73.65625 -76.53125 C 74.488281 -76.53125 75.335938 -76.53125 76.203125 -76.53125 C 78.742188 -76.53125 81.257812 -76.566406 83.75 -76.640625 C 86.25 -76.710938 88.332031 -76.785156 90 -76.859375 Z M 90 -76.859375 "/></g></g></g></g></g></svg>